<svg width="0" height="0" class="hidden">
  <symbol fill="none" xmlns="http://www.w3.org/2000/svg" viewBox="0 0 38 30" id="payment-system-mastercard">
    <path d="M14 5H25V23H14V5Z" fill="#FF5F00"></path>
    <path d="M14.7507 14.4984C14.7494 12.7571 15.1312 11.0383 15.8674 9.47209C16.6036 7.90586 17.6748 6.53325 19 5.45814C17.3587 4.12485 15.3877 3.29575 13.3121 3.06561C11.2365 2.83546 9.14019 3.21356 7.26267 4.15669C5.38515 5.09981 3.80221 6.56991 2.69475 8.39897C1.58729 10.228 1 12.3423 1 14.5C1 16.6578 1.58729 18.772 2.69475 20.601C3.80221 22.4301 5.38515 23.9002 7.26267 24.8433C9.14019 25.7864 11.2365 26.1645 13.3121 25.9344C15.3877 25.7043 17.3587 24.8752 19 23.5419C17.6744 22.4664 16.603 21.0933 15.8668 19.5265C15.1305 17.9597 14.7489 16.2402 14.7507 14.4984V14.4984Z" fill="#EB001B"></path>
    <path d="M36.23 21.4542V21.0779H36.3966V21H36V21.0779H36.1567V21.4543L36.23 21.4542ZM37 21.4542V21.0001H36.88L36.74 21.3245L36.6 21H36.48V21.4542H36.5667V21.1103L36.6967 21.4056H36.7867L36.9167 21.1103V21.4542H37Z" fill="#F79E1B"></path>
    <path d="M37 14.5016C37 16.6593 36.4126 18.7734 35.305 20.6023C34.1975 22.4312 32.6144 23.9011 30.7368 24.844C28.8593 25.7869 26.7629 26.1647 24.6874 25.9342C22.6119 25.7038 20.641 24.8744 19 23.5408C20.3245 22.4649 21.3953 21.092 22.1316 19.5259C22.8679 17.9598 23.2505 16.2413 23.2505 14.5C23.2505 12.7587 22.8679 11.0402 22.1316 9.47409C21.3953 7.90797 20.3245 6.53515 19 5.45921C20.641 4.12564 22.6119 3.29623 24.6874 3.06578C26.7629 2.83533 28.8593 3.21314 30.7369 4.15602C32.6144 5.09891 34.1975 6.56882 35.305 8.39773C36.4126 10.2266 37 12.3408 37 14.4984V14.5016Z" fill="#F79E1B"></path>
  </symbol>
  <symbol fill="none" xmlns="http://www.w3.org/2000/svg" viewBox="0 0 70 23" id="payment-system-visa">
    <mask id="mask0_17_431" maskUnits="userSpaceOnUse" x="0" y="0" width="70" height="23">
      <path d="M36.2023 7.35299C36.1624 10.5568 39.0085 12.3448 41.1525 13.4078C43.3554 14.4985 44.0952 15.1979 44.0868 16.1731C44.07 17.666 42.3296 18.3247 40.7005 18.3504C37.8587 18.3953 36.2065 17.5697 34.8928 16.9452L33.8691 21.8194C35.1871 22.4375 37.6275 22.9765 40.1582 23C46.0984 23 49.985 20.0165 50.006 15.3904C50.0291 9.51953 42.0248 9.19444 42.0795 6.57021C42.0984 5.7746 42.8446 4.92552 44.4799 4.70951C45.2892 4.60043 47.5236 4.51702 50.0565 5.70402L51.0507 0.9881C49.6886 0.483356 47.9377 0 45.7579 0C40.1667 0 36.2339 3.02418 36.2023 7.35299ZM60.6042 0.406361C59.5195 0.406361 58.6052 1.05012 58.1974 2.03822L49.7117 22.6535H55.6477L56.829 19.3321H64.0829L64.7682 22.6535H70L65.4345 0.406361H60.6042ZM61.4344 6.41622L63.1476 14.7701H58.4559L61.4344 6.41622ZM29.0052 0.406361L24.3262 22.6535H29.9826L34.6595 0.406361H29.0052ZM20.6372 0.406361L14.7496 15.5486L12.368 2.67342C12.0885 1.23619 10.9849 0.406361 9.75948 0.406361H0.134538L0 1.05226C1.97586 1.48856 4.22076 2.19221 5.58074 2.94505C6.41313 3.40488 6.65064 3.80696 6.9239 4.89985L11.4348 22.6535H17.4128L26.5774 0.406361H20.6372Z" fill="white"></path>
    </mask>
    <g mask="url(#mask0_17_431)">
      <path d="M-7 2.7713L62.2467 -23L78 20.2287L8.75403 46" fill="white"></path>
    </g>
  </symbol>
  <symbol fill="none" xmlns="http://www.w3.org/2000/svg" viewBox="0 0 24 24" id="social-logo-fb">
    <g clip-path="url(#clip0_17_401)">
      <path fill-rule="evenodd" clip-rule="evenodd" d="M12 0C18.6274 0 24 5.37259 24 12C24 17.9896 19.6118 22.954 13.875 23.8542V15.4688H16.6711L17.2031 12H13.875V9.74899C13.875 8.80005 14.3399 7.875 15.8306 7.875H17.3438V4.92188C17.3438 4.92188 17.2579 4.90723 17.1087 4.88525C16.6609 4.81934 15.6422 4.6875 14.6576 4.6875C14.315 4.6875 13.9872 4.71346 13.6758 4.76475C11.4966 5.12384 10.125 6.72466 10.125 9.35623V12H7.07812V15.4688H10.125V23.8542C4.38821 22.954 0 17.9896 0 12C0 5.37259 5.37259 0 12 0Z" fill="#EEECF4"></path>
    </g>
    <defs>
      <clipPath id="clip0_17_401">
        <rect width="24" height="24" fill="white"></rect>
      </clipPath>
    </defs>
  </symbol>
  <symbol fill="none" xmlns="http://www.w3.org/2000/svg" viewBox="0 0 24 24" id="social-logo-ig">
    <path d="M7.03012 0.0839254C5.75332 0.144166 4.8814 0.347926 4.11915 0.647447C3.33027 0.954889 2.66163 1.36745 1.99635 2.03513C1.33106 2.70281 0.921383 3.37194 0.616102 4.16202C0.320661 4.92594 0.1205 5.79859 0.0640997 7.07611C0.00769949 8.35363 -0.00478056 8.76428 0.00145946 12.023C0.00769948 15.2817 0.0220995 15.6902 0.0840198 16.9704C0.14498 18.2469 0.348021 19.1186 0.647542 19.8811C0.955463 20.67 1.36754 21.3384 2.03547 22.0039C2.70339 22.6694 3.37203 23.0782 4.16403 23.3839C4.92724 23.6789 5.80012 23.88 7.0774 23.9359C8.35469 23.9918 8.76581 24.0048 12.0236 23.9986C15.2814 23.9923 15.6915 23.9779 16.9714 23.9172C18.2514 23.8565 19.1185 23.652 19.8812 23.3539C20.6701 23.0453 21.339 22.6339 22.004 21.9658C22.6691 21.2976 23.0785 20.628 23.3835 19.8374C23.6792 19.0742 23.8801 18.2013 23.9355 16.925C23.9915 15.6441 24.0047 15.2352 23.9984 11.9769C23.9922 8.71868 23.9775 8.31019 23.9168 7.03051C23.8561 5.75083 23.6528 4.88178 23.3535 4.11882C23.0451 3.32994 22.6335 2.66201 21.9659 1.99601C21.2982 1.33001 20.6281 0.920808 19.8378 0.616487C19.0741 0.321046 18.2017 0.119686 16.9244 0.0644854C15.6471 0.00928517 15.236 -0.00487488 11.977 0.00136514C8.71805 0.00760516 8.31005 0.0215252 7.03012 0.0839254ZM7.17028 21.7771C6.00028 21.7262 5.365 21.5318 4.94164 21.3691C4.38099 21.1531 3.98163 20.892 3.55971 20.4742C3.13779 20.0563 2.87859 19.6555 2.65971 19.0961C2.49531 18.6727 2.29731 18.0381 2.24259 16.8681C2.18307 15.6036 2.17059 15.2239 2.16363 12.0201C2.15667 8.81636 2.16891 8.43715 2.22435 7.17211C2.27427 6.00307 2.46987 5.36706 2.63235 4.94394C2.84835 4.38258 3.10851 3.98394 3.52731 3.56226C3.94611 3.14058 4.34571 2.8809 4.90564 2.66201C5.32852 2.49689 5.96308 2.30057 7.1326 2.24489C8.39813 2.18489 8.77733 2.17289 11.9806 2.16593C15.1839 2.15897 15.5641 2.17097 16.8301 2.22665C17.9991 2.27753 18.6354 2.47121 19.058 2.63465C19.6189 2.85066 20.018 3.1101 20.4397 3.52962C20.8614 3.94914 21.1213 4.3473 21.3402 4.90842C21.5055 5.3301 21.7019 5.96443 21.7571 7.13467C21.8173 8.4002 21.831 8.77964 21.8367 11.9827C21.8425 15.1857 21.8312 15.5661 21.7758 16.8307C21.7247 18.0007 21.5307 18.6362 21.3678 19.0601C21.1518 19.6205 20.8914 20.0201 20.4723 20.4415C20.0533 20.863 19.6542 21.1226 19.094 21.3415C18.6716 21.5064 18.0363 21.7032 16.8678 21.7589C15.6022 21.8184 15.223 21.8309 12.0185 21.8378C8.81405 21.8448 8.43605 21.8318 7.17052 21.7771M16.953 5.58642C16.9534 5.87125 17.0384 6.14954 17.197 6.38609C17.3557 6.62265 17.5809 6.80684 17.8442 6.91538C18.1076 7.02391 18.3972 7.05192 18.6764 6.99585C18.9557 6.93978 19.212 6.80216 19.4131 6.60039C19.6141 6.39862 19.7508 6.14176 19.8058 5.8623C19.8609 5.58285 19.8318 5.29334 19.7223 5.03041C19.6128 4.76747 19.4278 4.54291 19.1906 4.38514C18.9535 4.22736 18.6749 4.14345 18.3901 4.14402C18.0083 4.14478 17.6424 4.29716 17.3729 4.56765C17.1034 4.83814 16.9523 5.20459 16.953 5.58642ZM5.83852 12.012C5.84524 15.4152 8.60909 18.1677 12.0116 18.1613C15.4141 18.1548 18.1686 15.3912 18.1621 11.988C18.1556 8.58475 15.391 5.83147 11.9881 5.83819C8.58509 5.84491 5.83204 8.60924 5.83852 12.012ZM7.99997 12.0076C7.9984 11.2165 8.23147 10.4427 8.66971 9.78399C9.10794 9.12531 9.73165 8.61137 10.462 8.30717C11.1923 8.00296 11.9964 7.92216 12.7727 8.07496C13.5489 8.22777 14.2624 8.60733 14.8229 9.16565C15.3835 9.72396 15.7659 10.436 15.9217 11.2116C16.0776 11.9872 16 12.7917 15.6987 13.5232C15.3974 14.2547 14.8859 14.8804 14.229 15.3213C13.572 15.7621 12.7991 15.9983 12.008 15.9998C11.4827 16.0009 10.9623 15.8985 10.4765 15.6985C9.99079 15.4985 9.54922 15.2047 9.17702 14.834C8.80483 14.4632 8.50932 14.0228 8.30736 13.5379C8.10539 13.0529 8.00094 12.533 7.99997 12.0076Z" fill="#EEECF4"></path>
  </symbol>
  <symbol fill="none" xmlns="http://www.w3.org/2000/svg" viewBox="0 0 24 24" id="social-logo-in">
    <path d="M22.2855 0H1.71404C0.856899 0 -0.000244141 0.857143 -0.000244141 1.71429V22.2857C-0.000244141 23.3143 0.856899 24 1.71404 24H22.2855C23.314 24 23.9998 23.3143 23.9998 22.2857V1.71429C23.9998 0.685714 23.1426 0 22.2855 0ZM7.19976 20.4H3.59976V9.08571H7.19976V20.4ZM5.31404 7.37143C4.11404 7.37143 3.2569 6.51429 3.2569 5.31429C3.2569 4.11429 4.11404 3.25714 5.31404 3.25714C6.51404 3.25714 7.37118 4.11429 7.37118 5.31429C7.37118 6.51429 6.51404 7.37143 5.31404 7.37143ZM20.3998 20.4H16.9712V14.9143C16.9712 13.5429 16.9712 11.8286 15.0855 11.8286C13.1998 11.8286 13.0283 13.2 13.0283 14.7429V20.4H9.42833V9.08571H12.8569V10.6286C13.3712 9.77143 14.5712 8.74286 16.2855 8.74286C19.8855 8.74286 20.5712 11.1429 20.5712 14.2286V20.4H20.3998Z" fill="#EEECF4"></path>
  </symbol>
  <symbol fill="none" xmlns="http://www.w3.org/2000/svg" viewBox="0 0 35 24" id="social-logo-yt">
    <path fill-rule="evenodd" clip-rule="evenodd" d="M29.6269 1.84535C30.9553 2.20095 31.9993 3.24488 32.3548 4.57329C32.9974 6.97865 33 12.0002 33 12.0002C33 12.0002 33 17.0218 32.3548 19.4271C31.9993 20.7555 30.9553 21.7995 29.6269 22.155C27.2216 22.8002 17.5721 22.8002 17.5721 22.8002C17.5721 22.8002 7.92275 22.8002 5.51738 22.155C4.18898 21.7995 3.14504 20.7555 2.78944 19.4271C2.14429 17.0218 2.14429 12.0002 2.14429 12.0002C2.14429 12.0002 2.14429 6.97865 2.78944 4.57329C3.14504 3.24488 4.18898 2.20095 5.51738 1.84535C7.92275 1.2002 17.5721 1.2002 17.5721 1.2002C17.5721 1.2002 27.2216 1.2002 29.6269 1.84535ZM22.5003 12.0009L14.4841 16.6287V7.37305L22.5003 12.0009Z" fill="#EEECF4"></path>
  </symbol>
</svg>
