<svg width="162" height="35" viewBox="0 0 162 35" fill="none" xmlns="http://www.w3.org/2000/svg">
<path d="M43.2891 28.2305C41.8676 28.2305 40.5421 28.0096 39.3127 27.5678C38.1025 27.1259 37.0843 26.4248 36.2583 25.4643C35.4515 24.5038 34.9424 23.2647 34.7311 21.7472H38.9381C39.111 22.4003 39.428 22.9286 39.889 23.332C40.35 23.7162 40.8975 23.9947 41.5314 24.1676C42.1846 24.3405 42.8665 24.427 43.5773 24.427C44.1152 24.427 44.6435 24.3597 45.1621 24.2252C45.6808 24.0908 46.1034 23.8603 46.43 23.5337C46.7758 23.2071 46.9486 22.7653 46.9486 22.2082C46.9486 21.7856 46.8526 21.4398 46.6605 21.1709C46.4876 20.9019 46.2283 20.6906 45.8825 20.5369C45.5559 20.364 45.1525 20.2104 44.6723 20.0759C44.2689 19.9606 43.8462 19.8646 43.4044 19.7877C42.9818 19.7109 42.5592 19.6149 42.1366 19.4996C41.7331 19.3843 41.3393 19.2499 40.9551 19.0962C40.2252 18.9041 39.524 18.6736 38.8517 18.4046C38.1793 18.1165 37.5838 17.7611 37.0651 17.3385C36.5465 16.8967 36.1334 16.3492 35.8261 15.696C35.5379 15.0429 35.3939 14.2553 35.3939 13.3332C35.3939 12.3343 35.5571 11.4891 35.8837 10.7975C36.2295 10.1059 36.6809 9.53924 37.238 9.09741C37.8143 8.63638 38.4482 8.28099 39.1398 8.03126C39.8506 7.78153 40.5613 7.60864 41.2721 7.51259C41.9829 7.41654 42.6552 7.36852 43.2891 7.36852C44.6146 7.36852 45.8057 7.59904 46.8622 8.06008C47.9187 8.52112 48.7832 9.21267 49.4555 10.1348C50.1279 11.0568 50.5121 12.219 50.6081 13.6214H46.6029C46.526 13.0451 46.3147 12.5744 45.9689 12.2094C45.6232 11.8444 45.1813 11.5755 44.6435 11.4026C44.1248 11.2297 43.5389 11.1433 42.8857 11.1433C42.4631 11.1433 42.0501 11.1817 41.6467 11.2585C41.2433 11.3354 40.8783 11.4602 40.5517 11.6331C40.2444 11.7868 39.9946 11.9981 39.8025 12.2671C39.6297 12.536 39.5432 12.8626 39.5432 13.2468C39.5432 13.631 39.6489 13.9671 39.8602 14.2553C40.0715 14.5242 40.3788 14.7643 40.7823 14.9757C41.2049 15.1678 41.6947 15.3503 42.2518 15.5231C42.8281 15.7152 43.4332 15.8689 44.0672 15.9842C44.7011 16.0994 45.3062 16.2531 45.8825 16.4452C46.6125 16.6373 47.2944 16.8678 47.9284 17.1368C48.5623 17.3865 49.1194 17.7131 49.5996 18.1165C50.0799 18.5007 50.4545 19.0001 50.7234 19.6149C50.9923 20.2104 51.1268 20.9499 51.1268 21.8336C51.1268 23.0054 50.9059 24.0043 50.4641 24.8304C50.0414 25.6372 49.4555 26.2903 48.7064 26.7898C47.9764 27.2892 47.1407 27.6542 46.1995 27.8847C45.2582 28.1153 44.2881 28.2305 43.2891 28.2305ZM54.0416 28V12.8145H58.0757V28H54.0416ZM56.0587 11.2873C55.3095 11.2873 54.7044 11.0664 54.2433 10.6246C53.7823 10.1636 53.5518 9.57766 53.5518 8.86689C53.5518 8.11771 53.7919 7.51259 54.2721 7.05155C54.7524 6.59052 55.3575 6.36 56.0875 6.36C56.7598 6.36 57.3361 6.59052 57.8164 7.05155C58.3158 7.49338 58.5656 8.08889 58.5656 8.83808C58.5656 9.56806 58.3254 10.1636 57.8452 10.6246C57.3841 11.0664 56.7886 11.2873 56.0587 11.2873ZM67.4687 28.2017C65.759 28.2017 64.4911 27.7215 63.6651 26.761C62.8583 25.8005 62.4549 24.4846 62.4549 22.8133V16.4164H60.1785V12.8145H62.4549V8.72282H66.489V12.8145H71.0994V16.4164H66.489V21.9777C66.489 22.4771 66.5466 22.9094 66.6619 23.2744C66.7963 23.6393 67.0077 23.9275 67.2958 24.1388C67.6032 24.3309 68.0162 24.427 68.5348 24.427C68.9959 24.427 69.3801 24.3597 69.6874 24.2252C70.014 24.0716 70.2829 23.9083 70.4943 23.7354L71.7621 26.8474C71.3587 27.174 70.9073 27.4429 70.4078 27.6542C69.9276 27.8463 69.4377 27.9808 68.9383 28.0576C68.4388 28.1537 67.9489 28.2017 67.4687 28.2017ZM80.3742 28.2017C78.7797 28.2017 77.4254 27.8847 76.3113 27.2508C75.1971 26.6169 74.3422 25.7236 73.7467 24.571C73.1512 23.3992 72.8535 22.0353 72.8535 20.4793C72.8535 18.9041 73.1608 17.5306 73.7756 16.3588C74.3903 15.1678 75.2547 14.2361 76.3689 13.5637C77.5023 12.8914 78.8374 12.5552 80.3742 12.5552C81.5268 12.5552 82.5353 12.7473 83.3997 13.1315C84.2834 13.5157 85.023 14.0536 85.6185 14.7451C86.2332 15.4367 86.6846 16.2435 86.9728 17.1656C87.2801 18.0685 87.4242 19.0482 87.405 20.1047C87.405 20.3737 87.3954 20.633 87.3762 20.8827C87.357 21.1324 87.3186 21.3822 87.2609 21.6319H76.8588C76.9164 22.2082 77.0797 22.7365 77.3486 23.2167C77.6175 23.697 77.9921 24.0812 78.4724 24.3693C78.9718 24.6383 79.5866 24.7727 80.3165 24.7727C80.7968 24.7727 81.2386 24.7247 81.642 24.6287C82.0454 24.5134 82.3912 24.3405 82.6794 24.11C82.9675 23.8795 83.1692 23.6105 83.2845 23.3032H87.2609C87.0112 24.4366 86.5406 25.3682 85.849 26.0982C85.1767 26.8282 84.3602 27.3661 83.3997 27.7119C82.4392 28.0384 81.4307 28.2017 80.3742 28.2017ZM76.9452 18.808H83.5438C83.5246 18.2894 83.3901 17.8091 83.1404 17.3673C82.9099 16.9063 82.5545 16.5413 82.0743 16.2723C81.6132 15.9842 81.0177 15.8401 80.2877 15.8401C79.5577 15.8401 78.943 15.9842 78.4436 16.2723C77.9633 16.5605 77.5983 16.9351 77.3486 17.3961C77.1181 17.8379 76.9836 18.3086 76.9452 18.808ZM88.448 28L96.4009 7.59904H101.011L108.878 28H104.44L103.172 24.5134H94.1533L92.8855 28H88.448ZM95.4788 20.7963H101.876L98.7061 11.9789L95.4788 20.7963ZM117.376 28.2017C115.148 28.2017 113.429 27.635 112.218 26.5016C111.027 25.349 110.432 23.6201 110.432 21.3149V12.8145H114.466V21.0268C114.466 21.7183 114.562 22.3331 114.754 22.8709C114.966 23.3896 115.282 23.8026 115.705 24.11C116.147 24.4173 116.714 24.571 117.405 24.571C118.154 24.571 118.731 24.4077 119.134 24.0812C119.537 23.7546 119.816 23.3224 119.97 22.7845C120.123 22.2274 120.2 21.6415 120.2 21.0268V12.8145H124.205V21.3149C124.205 23.7162 123.6 25.4643 122.39 26.5593C121.199 27.6542 119.528 28.2017 117.376 28.2017ZM133.598 28.2017C132.061 28.2017 130.784 27.8559 129.766 27.1644C128.767 26.4536 128.018 25.5123 127.518 24.3405C127.019 23.1495 126.769 21.8336 126.769 20.3929C126.769 18.8753 127.038 17.5306 127.576 16.3588C128.114 15.1678 128.911 14.2361 129.967 13.5637C131.024 12.8914 132.34 12.5552 133.915 12.5552C134.453 12.5552 134.981 12.6224 135.5 12.7569C136.038 12.8722 136.528 13.0547 136.969 13.3044C137.43 13.5349 137.824 13.8423 138.151 14.2265V7.59904H142.185V28H138.266L138.208 26.2999C137.863 26.7417 137.44 27.1067 136.941 27.3949C136.46 27.6638 135.942 27.8655 135.385 28C134.827 28.1345 134.232 28.2017 133.598 28.2017ZM134.405 24.571C135.269 24.571 135.97 24.3693 136.508 23.9659C137.065 23.5625 137.478 23.0438 137.747 22.4099C138.016 21.776 138.151 21.094 138.151 20.364C138.151 19.6149 138.016 18.9329 137.747 18.3182C137.498 17.6843 137.094 17.1848 136.537 16.8198C135.999 16.4356 135.289 16.2435 134.405 16.2435C133.521 16.2435 132.81 16.4452 132.273 16.8486C131.735 17.252 131.35 17.7803 131.12 18.4334C130.909 19.0674 130.803 19.7493 130.803 20.4793C130.803 21.0172 130.861 21.5359 130.976 22.0353C131.11 22.5156 131.322 22.9478 131.61 23.332C131.898 23.7162 132.273 24.0235 132.734 24.2541C133.195 24.4654 133.752 24.571 134.405 24.571ZM145.355 28V12.8145H149.389V28H145.355ZM147.372 11.2873C146.622 11.2873 146.017 11.0664 145.556 10.6246C145.095 10.1636 144.865 9.57766 144.865 8.86689C144.865 8.11771 145.105 7.51259 145.585 7.05155C146.065 6.59052 146.67 6.36 147.4 6.36C148.073 6.36 148.649 6.59052 149.129 7.05155C149.629 7.49338 149.878 8.08889 149.878 8.83808C149.878 9.56806 149.638 10.1636 149.158 10.6246C148.697 11.0664 148.102 11.2873 147.372 11.2873ZM159.473 28C158.205 28 157.139 27.8463 156.275 27.539C155.429 27.2316 154.786 26.7129 154.344 25.983C153.921 25.2338 153.71 24.2156 153.71 22.9286V16.4164H151.463V12.8145H153.71V8.75163H157.744V12.8145H161.058V16.4164H157.744V22.3523C157.744 22.9862 157.86 23.4857 158.09 23.8507C158.321 24.2156 158.839 24.3981 159.646 24.3981H160.914V28H159.473Z" fill="white"/>
<circle cx="16.9314" cy="17.5509" r="10.4782" stroke="white" stroke-width="2.61954"/>
<path d="M17.9791 33.5301C15.8807 33.5301 13.8028 33.1168 11.8642 32.3138C9.92547 31.5108 8.16394 30.3338 6.68014 28.8499C5.19633 27.3661 4.01932 25.6046 3.21629 23.6659C2.41326 21.7272 1.99995 19.6494 1.99995 17.551C1.99995 15.4525 2.41326 13.3747 3.21629 11.436C4.01932 9.49731 5.19633 7.73577 6.68014 6.25197C8.16394 4.76817 9.92548 3.59115 11.8642 2.78812C13.8028 1.98509 15.8807 1.57178 17.9791 1.57178" stroke="white" stroke-width="2.61954"/>
<path d="M17.7172 23.0519C19.1067 23.0519 20.4393 22.4723 21.4218 21.4406C22.4043 20.409 22.9563 19.0098 22.9563 17.5508C22.9563 16.0919 22.4043 14.6927 21.4218 13.661C20.4393 12.6294 19.1067 12.0498 17.7172 12.0498" stroke="white" stroke-width="2.61954"/>
</svg>
