<svg width="38" height="30" viewBox="0 0 38 30" fill="none" xmlns="http://www.w3.org/2000/svg">
<path d="M14 5H25V23H14V5Z" fill="#FF5F00"/>
<path d="M14.7507 14.4984C14.7494 12.7571 15.1312 11.0383 15.8674 9.47209C16.6036 7.90586 17.6748 6.53325 19 5.45814C17.3587 4.12485 15.3877 3.29575 13.3121 3.06561C11.2365 2.83546 9.14019 3.21356 7.26267 4.15669C5.38515 5.09981 3.80221 6.56991 2.69475 8.39897C1.58729 10.228 1 12.3423 1 14.5C1 16.6578 1.58729 18.772 2.69475 20.601C3.80221 22.4301 5.38515 23.9002 7.26267 24.8433C9.14019 25.7864 11.2365 26.1645 13.3121 25.9344C15.3877 25.7043 17.3587 24.8752 19 23.5419C17.6744 22.4664 16.603 21.0933 15.8668 19.5265C15.1305 17.9597 14.7489 16.2402 14.7507 14.4984V14.4984Z" fill="#EB001B"/>
<path d="M36.23 21.4542V21.0779H36.3966V21H36V21.0779H36.1567V21.4543L36.23 21.4542ZM37 21.4542V21.0001H36.88L36.74 21.3245L36.6 21H36.48V21.4542H36.5667V21.1103L36.6967 21.4056H36.7867L36.9167 21.1103V21.4542H37Z" fill="#F79E1B"/>
<path d="M37 14.5016C37 16.6593 36.4126 18.7734 35.305 20.6023C34.1975 22.4312 32.6144 23.9011 30.7368 24.844C28.8593 25.7869 26.7629 26.1647 24.6874 25.9342C22.6119 25.7038 20.641 24.8744 19 23.5408C20.3245 22.4649 21.3953 21.092 22.1316 19.5259C22.8679 17.9598 23.2505 16.2413 23.2505 14.5C23.2505 12.7587 22.8679 11.0402 22.1316 9.47409C21.3953 7.90797 20.3245 6.53515 19 5.45921C20.641 4.12564 22.6119 3.29623 24.6874 3.06578C26.7629 2.83533 28.8593 3.21314 30.7369 4.15602C32.6144 5.09891 34.1975 6.56882 35.305 8.39773C36.4126 10.2266 37 12.3408 37 14.4984V14.5016Z" fill="#F79E1B"/>
</svg>
