<svg width="72" height="27" viewBox="0 0 72 27" fill="none" xmlns="http://www.w3.org/2000/svg">
<mask id="mask0_17_430" style="mask-type:luminance" maskUnits="userSpaceOnUse" x="1" y="2" width="70" height="23">
<path d="M37.2023 9.35299C37.1624 12.5568 40.0085 14.3448 42.1525 15.4078C44.3554 16.4985 45.0952 17.1979 45.0868 18.1731C45.07 19.666 43.3296 20.3247 41.7005 20.3504C38.8587 20.3953 37.2065 19.5697 35.8928 18.9452L34.8691 23.8194C36.1871 24.4375 38.6275 24.9765 41.1582 25C47.0984 25 50.985 22.0165 51.006 17.3904C51.0291 11.5195 43.0248 11.1944 43.0795 8.57021C43.0984 7.7746 43.8446 6.92552 45.4799 6.70951C46.2892 6.60043 48.5236 6.51702 51.0565 7.70402L52.0507 2.9881C50.6886 2.48336 48.9377 2 46.7579 2C41.1667 2 37.2339 5.02418 37.2023 9.35299ZM61.6042 2.40636C60.5195 2.40636 59.6052 3.05012 59.1974 4.03822L50.7117 24.6535H56.6477L57.829 21.3321H65.0829L65.7682 24.6535H71L66.4345 2.40636H61.6042ZM62.4344 8.41622L64.1476 16.7701H59.4559L62.4344 8.41622ZM30.0052 2.40636L25.3262 24.6535H30.9826L35.6595 2.40636H30.0052ZM21.6372 2.40636L15.7496 17.5486L13.368 4.67342C13.0885 3.23619 11.9849 2.40636 10.7595 2.40636H1.13454L1 3.05226C2.97586 3.48856 5.22076 4.19221 6.58074 4.94505C7.41313 5.40488 7.65064 5.80696 7.9239 6.89985L12.4348 24.6535H18.4128L27.5774 2.40636H21.6372Z" fill="white"/>
</mask>
<g mask="url(#mask0_17_430)">
<path d="M-6 4.7713L63.2467 -21L79 22.2287L9.75403 48" fill="white"/>
</g>
</svg>
